<?xml version="1.0" encoding="utf-8"?>
<!-- Generator: Adobe Illustrator 27.5.0, SVG Export Plug-In . SVG Version: 6.00 Build 0)  -->
<svg version="1.1" xmlns="http://www.w3.org/2000/svg" xmlns:xlink="http://www.w3.org/1999/xlink" x="0px" y="0px"
	 viewBox="0 0 3000 1500" style="enable-background:new 0 0 3000 1500;" xml:space="preserve">
<g id="BACKGROUND">
	<rect style="fill:#FFFFFF;" width="3000" height="1500"/>
</g>
<g id="OBJECTS">
	<g>
		<path style="fill:#E0D0CE;" d="M1561.104,235.191c-11.732-14.923-36.937-24.251-55.474-25.855
			c-30.198-2.614-108.064,27.863-145.118,33.205c-10.81,1.558-47.573,2.864-52.949-4.928c-1.6-2.319-1.599-25.529,0.001-27.845
			c9.063-13.116,95.023-1.638,116.645-7.496c5.13-1.39,33.697-17.424,35.963-21.796c22.743-43.866-41.083-23.975-57.722-23.155
			c-40.265,1.984-81.186-1.336-121.542-0.358c-11.847,0.288-18.4,8.083-31.725,3.58c-30.073-10.163-22.884-49.763-23.092-75.887
			c-0.06-7.5,4.603-14.427,4.334-21.936c-0.543-15.137-13.022-51.807-27.237-58.917c-3.9-1.951-7.49-3.174-10.796-3.804h-9.838
			c-16.867,3.806-22.419,27.951-18.628,48.908c7.281,40.253,20.515,87.185,22.298,128.566c1.217,28.236-23.197,73.203-9.124,101.224
			c14.7,29.269,44.897,13.38,48.931-14.692c3.801-26.45-10.395-58.589,17.477-75.36c4.686-2.82,17.039,4.78,20.202,9.054
			c20.806,28.117-11.363,84.046-14.542,118.423c-1.953,21.121-6.332,74.064-5.559,92.219c0.819,19.219,16.948,44.826,17.654,64.182
			c0.255,6.977-3.339,31.123-9.544,32.039c-45.949,6.787-26.62-27.341-31.289-55.221c-6.521-38.93-68.454-49.159-101.026-43.424
			c-9.253,1.629-13.801,9.975-23.057,11.609c-18.183,3.21-43.822-1.497-63.685-0.186c-114.435,7.554-244.34,23.247-353.103-10.271
			c-37.37-11.516-68.207,13.256-102.635,16.364c-19.291,1.742-107.496,2.81-117.283-7.1c-11.415-11.559,0.934-50.811-1.057-71.33
			c-1.497-15.425-9.59-26.978-11.401-40.601c-2.176-16.369-3.007-84.333,6.656-94.006c9.112-9.121,105.455-10.536,114.61-4.388
			c6.293,4.226,8.216,26.952,4.948,31.648c-11.345,16.303-75.528-7.21-85.542,6.842c-9.626,13.509,8.705,51.184,10.712,66.26
			c2.355,17.688-6.785,66.7,9.599,71.353c21.826,6.198,39.666-2.441,42.898-25.534c2.868-20.496-21.676-52.801,11.245-69.271
			c19.335-9.673,37.023,2.054,54.717,3.083c38.642,2.248,84.778,7.852,94.336-38.856c2.124-10.38,7.143-47.021,7.232-56.768
			c0.173-19.115-16.618-42.461-17.984-63.598c-1.484-22.984,11.502-37.722,11.52-52.193c0.021-16.372-13.761-27.925-30.188-25.156
			c-30.318,5.111-36.128,68.724-32.706,94.377c2.58,19.346,36.333,84.782,1.867,94.992c-21.592,6.396-32.374-5.349-36.015-26.493
			c-1.309-7.605,3.792-14.081,3.351-20.885c-1.283-19.807-10.328-38.731-31.194-43.353c-20.47-4.534-114.99-4.207-137.295-0.922
			c-43.934,6.472-38.709,46.085-44.66,76.738c-4.449,22.916-12.69,29.517-9.912,58.662c3.814,40.011,16.847,70.672,10.816,115.811
			c-2.627,19.663-20.383,34.045,0.409,52.279c20.995,18.412,42.905,1.147,66.311,2.68c32.366,2.12,78.47,12.16,109.629,12.24
			c28.93,0.075,54.49-16.031,91.997-11.544c130.542,15.617,278.184,17.732,409.847,4.992c16.619-1.608,48.194-13.449,62.694-10.388
			c17.567,3.709,42.668,27.388,25.968,44.32c-17.332,17.572-51.024-5.023-70.956-4.947c-23.92,0.092-60.212,15.567-86.434,17.844
			c-49.698,4.314-103.532-12.607-150.072-5.766c-36.512,5.367-64.44,57.52,0.011,52.055c50.602-4.291,52.466-0.22,98.347,5.248
			c53.987,6.435,105.924-20.04,167.187-17.138c82.716,3.917,165.628,6.097,248.324,6.244c15.573,0.028,29.603-10.782,43.152,2.494
			c13.714,13.436,0.507,30.906-0.291,46.22c-1.321,25.341-3.859,81.208-0.099,103.605c1.117,6.652,28.188,19.372,39.528,8.188
			c12.134-11.967,5.869-78.818,6.745-100.219c0.414-10.126,6.342-19.059,6.333-28.752c-0.013-13.37-10.06-18.435,0.245-34.03
			c19.334-29.26,71.198,19.391,83.577-20.878c3.447-11.214-5.562-25.634-15.102-31.708c-32.283-20.555-72.112,0.471-106.36,2.983
			c-26.356,1.933-72.86,2.591-98.61-0.054c-47.695-4.899-33.993-39.353-37.141-72.703c-0.946-10.026-5.618-18.869-6.111-28.588
			c-0.936-18.458-3.113-71.788,1.096-86.02c8.948-30.254,52.382-18.433,75.773-22.413c24.861-4.23,52.42-24.22,76.577-27.396
			c110.198-14.486,52.019,39.92,68.695,92.541c4.454,14.054,13.151,20.757,28.308,16.342c24.005-6.992,12.854-50.986,15.551-71.289
			C1564.902,272.245,1584.254,264.638,1561.104,235.191z"/>
		<path style="fill:#E0D0CE;" d="M798.752,802.537c-8.551-65.497-49.809-40.319-95.154-43.535
			c-50.823-3.605-104.15-10.888-155.815-6.066c-23.624,2.205-50.017,17.987-73.998,10.757c-42.6-12.844,1.898-95.492-47.414-97.424
			c-15.111-0.592-27.679,10.902-40.506,11.644c-52.237,3.025-7.514-60.56-26.765-79.846c-7.95-7.965-29.923-8.023-38.027-0.005
			c-14.239,14.089,4.929,51.298-29.932,65.443c-42.756,17.347-80.884,11.757-124.388,14.19
			c-12.409,0.694-44.698,12.265-54.111,5.404c-1.569-1.144-7.07-19.801-5.79-24.492c7.715-28.262,62.66-10.972,82.097-11.3
			c7.819-0.132,32.148-3.545,40.236-5.394c64.755-14.802,77.026-67.698,8.209-55.375c-54.729,9.8-61.258,8.9-116.468,4.398
			c-65.984-5.381-43.71,24.633-59.134,62.517c-2.897,7.115-7.565,5.874-11.128,9.241c-2.295,2.168-1.819,7.202-3.071,8.092
			c-6.701,4.77-37.088-0.104-47.593,0.481v42.532c13.728,1.432,58.064-13.981,69.326,21.811
			c4.034,12.82-12.834,39.893-13.432,56.091c-0.527,14.294,10.4,26.106-1.254,44.378c-1.694,2.656-18.122,13.27-21.446,14.462
			c-16.76,6.01-11.661-5.615-15.103-8.679c-2.846-2.533-10.344-8.426-18.09-13.254v57.827c25.923,4.697,70.004-3.664,97.365-0.006
			c18.448,2.466,44.207,16.473,63.782,16.484c14.54,0.008,36.798-11.233,51.982-11.373c46.201-0.426,32.824,52.055,0.138,52.134
			c-17.628,0.043-60.389-27.165-60.856,14.932c-0.374,33.756,68.301,29.264,75.48,41.138c13.937,23.049-2.021,41.826-0.242,62.27
			c3.584,41.188,14.141,69.145,11.617,116.475c-0.943,17.68-15.52,44.733,15.175,53.839c42.32,12.554,28.474-37.159,30.655-65.748
			c0.659-8.641,5.085-16.312,5.537-23.339c3.276-50.98-20.365-101.927-17.178-156.127c1.716-29.184,22.992-98.931,16.683-120.331
			c-2.39-8.106-35.151-26.543-42.58-27.278c-13.346-1.321-17.643,9.987-28.657,11.948c-13.514,2.407-78.993,2.079-91.256-1.168
			c-1.902-0.503-18.752-10.544-19.888-11.828c-18.358-20.756,1.394-45.132,4.052-65.405c2.135-16.283-6.022-42.878,11.703-51.888
			c19.761-10.046,36.675,6.011,55.24,8.482c14.849,1.975,42.528,1.943,57.603,0.45c23.928-2.37,51.541-22.957,69.123-22.956
			c13.085,0.001,37.043,14.85,52.959,15.46c13.25,0.508,46.125-11.859,53.156,10.902c19.289,62.437-72.374,24.938-94.596,24.99
			c-9.732,0.023-18.691,6.086-28.68,6.332c-32.29,0.795-107.02-6.488-132.013,0.755c-20.593,5.968-20.698,38.436,0,44.42
			c16.146,4.669,44.086-0.554,62.737,0.765c9.973,0.706,18.766,5.678,28.531,6.119c121.009,5.474,239.324-15.407,357.81-11.471
			c25.95,0.862,55.349,0.938,81.253-0.1c20.05-0.803,39.539-15.439,60.331,2.828c23.615,20.747,0.016,45.892-0.322,69.422
			c-0.502,35.042,50.351,38.992,57.191-7.309C805.047,862.052,800.248,814,798.752,802.537z"/>
		<path style="fill:#E0D0CE;" d="M2161.413,0.927c-1.224-1.23-33.446-1.227-34.673,0.001c-3.034,3.037,4.017,37.978-1.17,45.379
			c-0.922,1.315-6.329,0.562-8.283,2.697c-4.229,4.622-5.011,10.776-11.23,14.986c-23.418,15.851-55.906,1.973-80.156,0.431
			c-71.955-4.577-159.64-9.071-230.789,0.453c-23.811,3.187-66.903,30.518-72.159-14.967c-1.089-9.425-0.21-32.212-1.441-49.906
			h-43.27c-0.679,4.501-1.211,8.371-1.372,10.027c-6.566,67.843,14.429,138.516,11.328,208.046
			c-0.923,20.697-7.583,38.769-6.197,63.753c0.932,16.807,14.232,49.262-3.472,60.695c-33.228,21.459-41.05-36.222-36.696-60.992
			c1.631-9.279,9.95-13.833,11.579-23.107c3.809-21.671,2.735-98.018,0.212-121.746c-6.258-58.843-67.283-94.931-123.236-82.518
			c-43.862,9.731-47.792,120.431-1.133,120.828c41.69,0.354,8.985-51.313,29.716-64.395c14.552-9.182,23.761-6.829,33.575,6.291
			c20.162,26.956-8.585,46.036-8.717,60.517c-0.087,9.57,28.802,40.924,28.859,57.691c0.037,10.854-9.353,28.272-10.859,41.06
			c-4.996,42.439-0.97,85.367-0.125,126.625c0.875,42.664-4.262,84.055-4.897,126.443c8.25,37.304,74.308,28.626,105.821,27.313
			c9.704-0.404,18.533-5.339,28.532-6.117c22.568-1.757,68.386,7.531,81.134-17.024c22.59-43.514-51.621-30.207-66.609-37.704
			c-19.851-9.929-14.073-39.766,9.582-42.24c6.481-0.678,14.314,4.559,22.072,4.714c13.917,0.279,46.278-3.43,55.241,2.509
			c19.748,13.085,0.153,104.061,53.665,89.246c29.395-8.138,7.495-52.645,4.197-72.024c-3.071-18.042,4.88-38.495-9.13-54.487
			c-21.695-24.764-38.77,1.454-63.415,0.306c-30.667-1.43-41.809-28.7-89.699-15.124c-51.43,14.58-35.112,49.8-40.352,86.845
			c-6.498,45.934-55.021,28.045-45.046-16.097c2.218-9.816,11.03-15.798,11.043-30.001c0.02-21.848-20.535-25.655-5.366-51.243
			c18.495-31.199,62.013,0.034,82.666-32.833c18.286-29.1-0.145-49.327-2.842-77.786c-1.583-16.703-2.229-61.74,5.552-74.573
			c12.267-20.23,52.719-2.22,65.552-4.446c35.411-6.142,41.314-55.587-10.464-51.528c-15.297,1.199-27.238,11.353-43.29,3.206
			c-20.058-10.181-12.444-42.082,8.877-43.782c9.114-0.727,18.791,6.049,28.811,6.534c12.468,0.604,22.557-5.374,34.403-6.382
			c75.246-6.402,24.734,60.048,51.873,87.166c12.978,12.968,27.529,11.877,36.704-4.167c15.489-27.084-16.199-69.925,14.164-84.185
			c24.75-11.624,38.135,0.692,58.902,1.509c23.04,0.906,114.887-6.798,124.64,9.291c11.69,19.284,0.662,48.299,6.323,67.74
			c2.02,6.935,19.123,20.097,25.138,19.625c1.222-0.096,20.165-12.192,20.406-13.64c4.784-28.705-8.412-60.87-6.186-92.044
			C2150.973,90.077,2170.281,9.836,2161.413,0.927z"/>
		<path style="fill:#E0D0CE;" d="M3000,509.351c-21.811,0.997-59.369,4.107-69.646-6.241c-16.08-16.191,8.41-71.243-1.709-85.056
			c-7.231-9.871-33.282-5.357-42.669,5.35c-18.159,20.715,1.856,61.254-20.227,72.293c-14.006,7.001-48.248,1.671-66.635,2.646
			c-46.037,2.443-55.339-1.341-98.366-5.226c-50.396-4.551-88.763,14.323-138.413,11.444
			c-54.035-3.134-132.936-14.564-184.402-12.264c-15.215,0.68-26.629,11.944-43.429,3.369
			c-12.975-6.623-18.218-19.315-16.169-33.533c3.006-20.868,16.122-18.237,35.245-14.458c38.528,7.612,89.133,18.413,128.065,22.044
			c33.558,3.129,115.66,8.105,118.582-38.013c-2.428-30.924-32.771-110.778-20.332-135.736c19.127-38.377,98.606-0.48,132.68,0.419
			c23.12,0.61,33.927-9.195,52.356-11.661c20.218-2.706,43.879,2.612,63.321-0.181c17.243-2.477,24.475-26.452,12.848-39.228
			c-29.555-32.476-101.661,4.905-144.477-2.639c-16.472-2.902-30.175-15.315-47.334-16.45c-14.921-0.987-61.989,5.619-78.322,8.719
			c-4.753,0.902-25.104,7.904-27.416,10.177c-14.932,14.68-14.705,67.521-12.848,88.643c3.427,38.964,36.581,96.01-31.234,89.134
			c-89.573-9.083-129.904-23.576-225.338-16.794c-30.911,2.197-73.848-12.939-82.803,26.951
			c-4.737,21.103,6.963,34.593,4.984,50.858c-1.458,11.981-18.886,25.73-30.878,24.875c-20.405-1.455-52.984-13.814-76.573-15.68
			c-18.322-1.449-80.687-1.511-71.264,30.609c11.137,37.962,92.966,25.536,123.762,26.695c28.013,1.054,51.041,16.029,80.854-5.417
			c29.412-21.156,16.25-53.114,21.332-82.868c4.908-28.739,27.355-16.462,32.181,5.687c3.553,16.307-2.208,35.729,2.044,50.022
			c11.575,38.909,80.143,25.441,111.816,26.789c39.498,1.681,88.48-3.171,121.244,0.025c27.09,2.643,41.299,13.993,75.151,11.962
			c32.145-1.928,86.469-23.47,112.57-14.964c41.346,13.475-7.218,71.533,22.904,98.467c24.65,22.042,46.705-7.971,46.459-34.584
			c-0.123-13.297-9.967-24.162-5.344-39.553c1.621-5.397,14.889-18.641,20.322-20.256c12.907-3.836,74.877-2.629,91.572-1.068
			c15.994,1.495,31.403,9.553,46.431,11.322c30.956,3.646,53.918,1.72,79.106-9.723V509.351z"/>
		<path style="fill:#E0D0CE;" d="M2506.913,586.114c0.861,0.894,5.464,20.863,5.239,24.291c-1.398,21.295-25.265,40.257-9.46,63.881
			c20.522,30.675,86.258-6.361,79.767,58.091c-3.529,35.044-11.973,66.878-47.495,79.784
			c-29.141,10.588-136.589,5.804-174.576,4.722c-9.834-0.28-18.679-5.749-28.531-6.12c-35.958-1.354-82.059,4.88-115.736,0.282
			c-22.95-3.133-18.68-34.25,0.904-45.609c27.502-15.951,52.753-1.435,79.763-0.524c55.344,1.866,162.16,7.119,212.654-1.609
			c17.887-3.092,20.031-11.763,14.958-29.822c-5.695-20.276-45.239-4.088-59.771-3.384c-96.022,4.653-194.561,2.147-288.412-17.52
			c-56.582,8.809,7.655,61.778-16.042,85.567c-16.441,16.505-38.457,0.072-46.332-17.662c-3.428-7.72-14.589-50.41-15.739-59.558
			c-3.706-29.484,19.416-56.701,48.811-55.041c16.476,0.931,25.719,12.817,43.232-2.628c20.705-18.258-0.565-99.189,46.423-75.192
			c32.418,16.556-21.418,96.536,37.375,96.002c33.149-0.301,81.835-12.237,115.445-12.47c23.2-0.161,51.027,23.44,66.749,3.707
			c16.647-20.894-5.473-50.757-27.501-54.51c-16.628-2.833-56.128,19.658-80.029,21.922c-26.614,2.521-64.947,0.321-71.068-32.522
			c-7.61-40.834,61.588-17.418,83.123-18.951c17.057-1.215,36.441-12.196,51.87-12.093c11.274,0.075,21.364,7.18,34.545,6.572
			c10.042-0.463,19.118-6.599,28.91-6.604C2480.336,579.115,2505.812,584.971,2506.913,586.114z"/>
		<path style="fill:#E0D0CE;" d="M3000,1019.713c-14.856-3.786-67.367-1.535-85.432-0.666c-16.717,0.804-31.382,10.847-50.873,4.993
			c-14.284-4.29-24.757-28.552-26.571-42.755c-6.698-52.461,7.385-104.5,10.955-156.161c1.548-22.406,23.54-28.314,32.266-14.443
			c10.92,17.358-6.239,45.598-2.143,65.609c7.013,34.26,42.606,26.523,48.541-7.44c4.627-26.479-25.984-59.849,11.964-80.178
			c8.169-3.16,39.561-3.831,61.293-4.699v-41.404c-28.427-5.052-76.588,8.743-96.641,10.677
			c-24.915,2.403-69.283-8.425-86.654,11.508c-13.138,15.075-6.266,32.218-9.154,48.682
			c-9.792,55.842-25.899,109.001-16.805,168.047c2.123,13.784,22.258,36.512,1.928,49.58c-17.797,11.44-26.905-3.966-42.412-9.007
			c-73.646-23.939-145.277,2.95-216.5,3.423c-29.46,0.196-77.264-35.536-88.421,15.073c-11.261,51.084,16.982,75.924,21.729,114.939
			c2.554,20.988-6.652,34.651-5.959,51.717c0.786,19.4,5.569,31.354,25.575,25.219c22.745-6.976,22.661-57.026,20.652-76.845
			c-2.15-21.216-21.882-69.381-14.151-84.358c18.141-35.143,45.679-4.792,43.834,26.047c-0.577,9.655-6.408,17.543-5.249,27.616
			c5.765,50.08,53.736,50.463,51.437,1.393c-0.924-19.705-16.551-36.562,2.265-55.213c25.813-25.586,44.923-1.863,69.262,0.442
			c38.144,3.612,83.618-4.972,121.156,0.066c10.849,1.456,21.514,9.232,30.115,9.986c17.661,1.547,41.496-20.612,62.419-22.156
			c24.541-1.811,33.806,11.688,52.095,12.344c12.707,0.456,22.744-5.716,34.453-6.418c7.205-0.432,31.192,0.841,45.024,0.894
			V1019.713z"/>
		<path style="fill:#E0D0CE;" d="M1639.911,1500c6.536-22.262-0.649-60.927,2.06-78.554c1.606-10.45,9.516-17.486,10.574-24.179
			c1.219-7.708-9.195-17.644-10.667-28.229c-4.438-31.915,12.061-48.653,43.182-49.35c35.572-0.797,81.539,16.955,115.517,17.173
			c20.659,0.133,52.309-14.819,74.93-16.936c29.753-2.784,86.065-2.854,115.791-0.079c17.883,1.67,27.307,2.638,26.024,20.436
			c-0.876,12.158-0.684,18.438-14.549,20.378c-27.967,3.913-56.815-7.918-87.005-6.126c-21.482,1.275-42.587,10.194-63.067,11.961
			c-46.762,4.035-93.089-3.445-138.661-6.247c-50.96-3.134-19.269,43.885-20.342,66.375c-0.566,11.853-9.359,28.118-11.052,41.359
			c-0.596,4.664-1.231,20.869-1.181,32.018h49.357c2.689-20.184,5.237-61.955,14.526-77.936
			c11.513-19.807,73.292-1.867,95.827-3.519c45.993-3.373,82.351-10.555,132.776-11.544c13.125-0.258,24.32-10.626,37.51,2.612
			c13.093,13.141,7.618,70.095,11.977,90.387h51.421c-1.801-9.106-5.656-21.168-6-26.446c-2.845-43.78,11.155-151.98-14.372-182.307
			c-9-10.693-37.751-23.182-51.917-23.668c-13.132-0.451-25.725,5.541-40.045,6.441c-36.212,2.276-62.941-13.546-98.665-0.486
			c-51.322,18.762-67.901,25.128-125.43,10.482c-26.631-6.78-29.295-7.546-59.23-10.069c-22.245-1.875-37.732-12.752-62.289,0.867
			c-30.296,16.802-8.204,58.456-9.275,82.791c-0.974,22.152-10.734,51.389-12.235,75.008c-1.121,17.638-2.103,49.481-0.132,67.385
			H1639.911z"/>
		<path style="fill:#E0D0CE;" d="M2104.85,1318.877c-13.834-13.864-2.216-60.312-7.469-67.714
			c-7.667-10.805-74.481,4.268-74.417-38.134c0.071-47.208,51.454-14.805,72.106-14.061c18.86,0.68,38.434-10.326,57.528-12.112
			c44.974-4.207,92.041,6.88,138.844,6.119c9.783-0.159,18.308-6.423,28.221-5.913c12.5,0.642,54.615,16.929,60.524-3.517
			c15.606-53.999-68.153-31.885-94.413-30.997c-82.745,2.796-166.658,0.01-248.343-6.235c-70.468-5.388-38.952,33.843-50.145,71.574
			c-4.953,16.693-32.661,28.646-44.213,14.313c-12.053-14.954-11.933-105.238,7.309-120.728c9.802-7.891,55.76-16.862,69.649-17.467
			c12.906-0.563,22.916,6.014,34.399,6.373c60.58,1.892,119.24-2.929,178.861-6.221c33.489-1.849,69.343,9.129,98.203,5.746
			c34.145-4.001,22.158-29.673,27.253-53.571c5.288-24.803,31.534-49.438,51.228-24.589c16.498,20.817-10.712,61.073-5.948,92.793
			c4.803,31.987,44.82,58.71,19.767,95.355c-27.426,40.116-45.619,26.484-86.498,29.011c-34.41,2.127-87.347,7.305-120.572,5.872
			c-18.716-0.807-47.99-22.236-64.093-5.801c-19.78,20.188,6.611,50.842-5.609,75.381
			C2139.713,1329.031,2114.683,1328.731,2104.85,1318.877z"/>
		<path style="fill:#E0D0CE;" d="M1102.101,891.929c-9.201-2.568-18.681-26.325-8.998-37.949
			c23.917-28.71,40.199-1.999,48.458-3.183c59.643-8.549,30.057-130.723,32.441-170.318c0.769-12.775,4.734-22.424,6.219-34.25
			c3.146-25.051-6.213-57.382,32.524-59.463c8.127-0.436,46.809,3.594,55.67,5.407c67.681,13.846,18.135,79.167,21.401,116.953
			c1.671,19.323,14.562,44.418,16.831,64.583c2.751,24.453-10.172,61.347,17.695,69.536c37.471,11.012,17.741-42.499,23.771-63.464
			c3.688-12.821,27.703-13.138,36.948-3.667c18.859,19.322-11.121,60.16,25.681,72.843c18.418,6.348,18.765-6.985,31.926-9.133
			c17.732-2.894,85.068-2.057,101.308,2.665c17.892,5.201,27.307,25.74,46.096,6.195c19.961-20.763,6.465-32.066,5.224-52.223
			c-1.966-31.914,34.609-55.732,46.581-17.38c-4.303,53.738,5.682,115.414,0.183,168.02c-1.409,13.485-10.578,37.795-26.047,37.478
			c-2.854-0.058-19.188-5.587-19.803-6.429c-11.778-16.11,21.422-67.953-8.81-92.37c-16.182-13.07-29.956-0.315-46.399,0.535
			c-71.038,3.671-138.424-0.663-207.99-0.677c-18.612-0.004-36.394,12.734-54.897,3.415c-28.815-14.512-14.397-75-17.125-104.297
			c-2.895-31.101-14.249-50.064-11.84-86.823c1.086-16.571,12.079-31.384,3.097-49.071c-7.839-15.435-31.025-9.584-32.085-2.213
			c-3.696,25.694-0.823,75.503,0.115,103.698c0.985,29.627,9.9,58.458,5.619,92.082c-1.603,12.593-21.321,49.499-31.429,49.499
			C1173.151,891.929,1117.542,896.239,1102.101,891.929z"/>
		<path style="fill:#E0D0CE;" d="M1550.937,638.759c-5.51,6.206-8.513,22.059-7.549,30.417c4.138,35.904,66.19-1.841,84.428-2.903
			c33.435-1.945,95.923,9.089,132.189,11.732c20.32,1.481,60.328-2.555,81.052-5.883c28.049-4.505,18.002-34.491,20.427-54.809
			c3.574-29.959,34.282-36.283,47.245-7.324c7.274,16.252,5.599,40.114,3.043,57.789c-3.434,23.746-32.064,66.6-14.709,84.1
			c13.911,14.027,44.383-1.087,64.877,1.46c16.978,2.11,35.495,14.652,52.535,16.809c20.662,2.616,70.856-7.773,59.638,31.261
			c-11.035,38.396-86.467,5.942-111.731,3.606c-31.456-2.909-99.342,21.116-111.781-21.054c-3.362-11.399,3.108-63.892-10.16-65.87
			c-20.028-2.986-37.763,5.205-56.873,6.302c-47.35,2.719-104.134-11.481-156.314-6.199c-37.116,3.757-71.459,33.653-109.719,6.156
			c-28.481-20.469-16.351-37.183-14.581-61.331c1.085-14.807-1.645-30.833,1.435-44.82c13.103-59.51,105.12-23.942,145.86-21.069
			c45.992,3.243,93.013-8.278,138.635-11.996c62.95-5.13,50.008,48.186,10.634,56.929c-27.541,6.115-128.712,3.875-160.706,1.237
			c-9.691-0.799-29.859-4.491-38.946-7.245c-10-3.031-12.137-14.299-29.057-9.377
			C1569.185,627.151,1551.901,637.674,1550.937,638.759z"/>
		<path style="fill:#E0D0CE;" d="M1207.514,375.566c-18.343,16.484-45.52,2.097-64.835,1.279
			c-21.848-0.926-47.862-1.143-69.613-0.008c-27.326,1.426-42.109,17.798-63.063-17.449c-12.308-20.702-6.395-39.299-9.294-60.116
			c-2.593-18.618-21.702-57.549,9.943-66.382c12.636-3.527,70.413,39.687,75.963-10.171c3.776-33.918-72.117-27.236-93.807-24.671
			c-16.487,1.949-49.441,20.488-61.294,1.69c-16.192-25.682,7.425-44.551,32.193-48.23c21.314-3.166,114.894,5.891,123.432-6.463
			c1.6-2.316,1.602-25.525,0-27.845c-2.252-3.264-24.571-6.363-31.004-6.624c-31.852-1.288-73.939,12.032-104.101,12.225
			c-15.091,0.096-34.794-10.438-51.843-12.069c-43.98-4.208-80.241,13.149-124.527-2.474c-22.522-7.945-37.206-32.33-25.754-55.322
			c14.467-29.044,52.607,8.043,75.215,11.493c26.335,4.019,56.192-8.568,86.621-5.757c19.356,1.789,36.853,11.089,57.369,11.986
			c32.892,1.437,58.588-14.612,92.734-11.976c24.499,1.891,58.349,11.822,69.149,34.803c15.508,32.996,3.616,42.656,2.589,72.083
			c-0.735,21.078-0.325,42.942,0.074,64.056c0.178,9.442,6.003,16.982,4.955,27.363c-5.495,54.439-62.137,13.021-85.655,36.047
			c-17.484,17.119,0.973,35.176,20.552,37.639c17.129,2.155,29.85-6.242,45.904-6.237c12.655,0.003,22.654,5.391,34.467,6.456
			c14.221,1.283,32.484-3.108,45.429,0.759c4.634,1.384,20.007,16.194,20.797,20.006
			C1220.679,354.395,1209.723,373.581,1207.514,375.566z"/>
		<path style="fill:#E0D0CE;" d="M1260.851,1033.676c7.155-25.906,66.636-22.415,89.086-19.857
			c19.019,2.168,37.397,14.563,52.469,16.841c15.957,2.412,52.611,1.929,69.313,0.287c25.737-2.53,50.156-23.712,69.072-23.714
			c19.383-0.003,42.401,16.776,63.501,18.067c41.65,2.55,84.225-10.804,133.162-6.432c51.993,4.645,79.943,7.928,132.488,5.711
			c20.993-0.886,39.221,16.067,60.428-2.581c19.402-17.06,6.104-29.125,5.698-46.028c-0.598-24.945-4.345-96.196,1.099-114.953
			c5.534-19.064,30.302-23.25,43.844-8.188c10.632,11.826,8.327,69.506,7.468,88.544c-0.638,14.142-5.495,25.707-6.283,39.948
			c-1.316,23.769,12.671,58.234-5.47,75.554c-18.825,17.973-80.885,17.577-106.567,14.118c-31.76-4.277-27.513-6.972-63.617-5.312
			c-53.445,2.456-103.648-4.034-162.179-0.572c-41.836,2.474-82.743-16.578-118.284-8.574c-18.04,4.063-36.048,18.061-54.839,20.264
			c-20.563,2.411-42.304-9.979-60.441,3.051c-6.663,4.786-16.316,47.244-17.313,57.83c-2.64,28.042,4.487,52.831,4.925,79.966
			c-9.24,25.968-31.267,37.448-47.803,9.567c-11.208-18.897-11.087-55.586-8.554-77.436c2.393-20.646,22.609-59.205,22.633-69.798
			c0.053-23.032-28.721-42.085-45.474-16.724c-13.884,21.017,3.23,66.416-23.557,80.506c-12.74,6.702-34.804-3.029-34.804-11.729
			C1260.851,1109.476,1256.328,1050.052,1260.851,1033.676z"/>
		<path style="fill:#E0D0CE;" d="M432.63,1325.684c27.582,4.056,91.923,2.616,121.227,0.33c28.199-2.2,94.007-29.957,105.7,9.447
			c7.337,24.725-10.3,91.186,32.998,94.613c59.17,4.683-15.876-117.72,35.253-120.331c48.106-2.457,3.809,101.156,46.15,113.557
			c12.087,3.54,70.584,2.472,83.133-1.656c30.774-10.124,27.705-40.409,39.978-52.505c12.318-12.14,32.336-4.826,34.845,11.575
			c2.716,17.75-19.982,116.352-2.604,118.998c0.703,0.107,1.818,0.203,3.222,0.288h30.732c1.785-0.143,2.961-0.329,3.196-0.565
			c2.685-2.69-2.337-49.27-0.252-60.236c1.076-5.654,11.256,1.075,12.138-11.688c1.907-27.576,0.612-70.246-20.419-90.237
			c-6.398-6.082-15.979-9.163-23.49-16.957c-15.846-16.445-12.799-34.335-45.478-29.451c-6.617,0.989-8.911,50.364-35.966,68.817
			c-19.454,13.269-43.526,27.035-56.937,0.974c-18.627-36.195,43.274-45.277,48.557-52.734c2.711-3.827,1.347-23.464-2.049-28.595
			c-10.63-16.063-49.588-4.11-69.798-5.307c-65.994-3.908-130.852-0.317-195.815-0.064c-36.028,0.14-74.466,1.662-110.117,0.087
			c-19.188-0.848-46.43-15.553-60.698,2.261C388.67,1298.115,408.377,1322.117,432.63,1325.684z"/>
		<path style="fill:#E0D0CE;" d="M1781.591,1249.424c-24.227-24.122,30.254-89.193-22.538-101.789
			c-30.088,2.598-127.631-28.313-110.556,29.801c12.328,41.959,104.521-24.592,90.405,40.28
			c-8.471,38.932-66.045,16.79-94.001,15.393c-59.368-2.966-112.848,18.188-173.556,11.951c-16.269-1.672-28.883-6.721-34.72-23.058
			l-7.577-77.197c7.308-16.962,16.542-35.354,36.086-20.792c20.683,15.411,9.255,65.581,36.169,73.657
			c10.036,3.012,74.378-5.699,86-10.382c34.601-13.943,21.629-50.979-10.574-45.592c-16.794,2.809-64.629,27.807-67.971-9.779
			c-2.824-31.76,29.718-39.687,55.315-37.669c60.05,4.733,123.29,3.908,184.407,6.129c30.423,1.106,130.844-9.433,144.641,17.022
			c23.319,44.712-50.292,29.285-64.024,40.301c-22.08,17.715,7.374,55.901-5.378,81.413
			C1816.239,1254.076,1794.779,1262.555,1781.591,1249.424z"/>
		<path style="fill:#E0D0CE;" d="M458.984,1018.66c1.132,1.603,20.721,6.733,25.408,6.755c21.768,0.103,41.659-14.616,75.259-12.135
			c56.176,4.147,110.261,7.576,167.391,6.099c35.778-0.925,76.377-11.319,115.102-5.767c22.177,3.18,29.743,14.862,26.433,36.942
			c-2.728,18.204-66.111,3.907-78.038,3.202c-51.281-3.033-69.263,11.396-109.96,17.411c-12.225,1.807-53.681-2.58-59.997,6.397
			c-3.014,4.284-1.629,27.274,4.939,31.64c21.526,14.307,57.604-18.747,74.224-2.053c30.971,31.108-56.18,81.107-99.958,45.217
			c-9.207-7.548-27.485-30.935-25.274-42.352c1.777-9.173,13.927-16.78,10.386-29.115c-1.316-4.586-21.73-24.997-26.409-26.332
			c-9.605-2.742-27.419,3.853-38.013,6.564c-32.914,8.422-82.329,19.127-116.72,21.86c-29.165,2.318-95.469-0.153-82.985-42.652
			c11.402-38.816,76.897,8.287,96.072-10.772c21.272-21.143-11.347-51.995-9.269-70.238c3.3-28.969,48.132-41.775,55.648-5.475
			C466.785,971.059,451.494,1008.052,458.984,1018.66z"/>
		<path style="fill:#E0D0CE;" d="M3000,1376.926c-1.142-0.103-2.199-0.224-3.088-0.381c-12.98-2.294-47.084-11.17-56.137-18.938
			c-19.138-16.421-5.375-59.981-26.977-71.3c-23.554-12.341-31.83-1.354-50.855-0.764c-19.302,0.599-38.723-0.823-58.038-0.385
			c-17.115,0.389-28.51,13.759-45.907-5.698c-22.013-24.62,35.57-84.268-17.358-87.091c-50.658-2.702-35.455,63.149-37.442,96.041
			c-1.466,24.267-10.971,46.197-4.858,73.958c3.986,18.103,46.717,56.013,64.022,63.126c32.343,13.295,54.729-6.405,81.051-0.252
			c24.569,5.743,50.801,50.265,69.485,44.795c16.757-4.906,16.171-26.614,7.857-38.696c-1.365-1.983-8.004-0.152-11.531-8.417
			c-10.506-24.623-6.26-34.17,20.728-26.539c22.807,6.449,34.408,31.057,69.05,29.474V1376.926z M2856.825,1377.736
			c-22.347,3.22-89.816,2.967-105.362-12.59c-12.651-12.66-6.143-43.134,14.043-43.772c15.957-0.505,33.34,15.774,45.2,15.849
			c23.034,0.145,41.777-30.119,66.388-8.36C2898.94,1348.177,2882.408,1374.05,2856.825,1377.736z"/>
		<path style="fill:#E0D0CE;" d="M2483.454,852.609c21.334,21.521-16.189,42.165-36.63,44.784
			c-39.937,5.117-77.904-4.794-114.868-5.731c-76.144-1.929-150.417-1.072-225.884-5.445c-30.036-1.74-40.447,16.191-42.976,43.154
			c-8.737,93.122,11.012,104.221,101.325,95.762c21.427-2.007,77.35-26.135,77.522,14.329c0.083,19.543-15.017,23.892-31.861,25.648
			c-34.821,3.63-70.417,2.545-103.916,0.742c-25.072-1.35-53.443,5.912-71.956-14.634c-19.71-21.874-7.105-64.148-17.553-92.689
			c9.948-22.779,3.092-47.23,6.326-69.348c3.696-25.27,14.098-34.132,37.752-37.385c56.938-7.831,97.535-9.707,155.666-6.317
			c69.699,4.063,148.601,8.656,219.363,6.143C2450.506,851.099,2469.636,838.669,2483.454,852.609z"/>
		<path style="fill:#E0D0CE;" d="M120.564,1314.147c21.268-0.057,104.63,0.074,117.349,12.871
			c20.813,20.94-10.627,92.435-4.824,122.708c0.942,4.917,11.068,1.883,11.996,6.83c1.348,7.195-0.551,29.683-0.95,43.443h293.622
			c-2.089-10.598-6.163-28.45-6.947-29.719c-19.248-31.171-123.714,12.361-156.085,12.271c-18.61-0.052-74.29-11.123-83.964-26.255
			c-13.634-21.328-1.115-37.28,0.413-57.942c1.558-21.062-9.684-48.365-0.437-63.017c12.607-19.974,55.719,8.037,74.148-10.632
			c8.211-8.318,6.434-25.505-1.582-33.713c-12.434-12.733-60.348-2.042-80.93-5.643c-8.403-1.47-12.79-8.476-18.809-10.077
			c-34.271-9.115-82.706-10.443-119.554-13.214c-23.04-1.732-69.247,1.763-72.601,31.974
			C67.851,1326.096,105.401,1314.187,120.564,1314.147z"/>
		<path style="fill:#E0D0CE;" d="M1781.593,331.905c16.667-16.87,115.251,0.802,146.172-1.011
			c24.328-1.426,55.924-9.967,80.5-11.918c17.106-1.358,28.895-0.455,43.187,9.119c33.945,22.74,7.507,58.938,20.234,78.078
			c3.74,5.624,21.251,13.026,28.391,10.966c26.099-7.529,5.979-55.151,3.998-72.356c-1.351-11.736,0.702-23.214-0.195-34.504
			c-0.796-10.013-6.992-20.023-6.308-28.636c0.884-11.118,19.279-29.177,31.245-25.628c31.275,9.275,18.862,64.043,20.868,89.341
			c2.813,35.455,28.446,111.728-27.219,117.437c-10.341,1.06-17.889-4.803-27.308-4.974c-44.672-0.811-70.417,7.375-110.232,11.332
			c-24.427,2.427-69.728-1.288-59.523-36.339c9.026-31,54.82-12.987,77.474-15.113c13.666-1.283,29.601-5.497,31.721-20.365
			c7.591-53.257-73.218-16.055-100.951-14.309c-23.17,1.459-39.066-5.384-57.833-6.181c-22.609-0.961-68.359,4.802-86.031-0.563
			C1775.436,371.924,1770.976,342.651,1781.593,331.905z"/>
		<path style="fill:#E0D0CE;" d="M2992.622,220.816c-1.883,1.882-35.008-10.187-43.641-11.197
			c-20.77-2.431-42.489,1.299-63.278-0.224c-37.797-2.768-80.161-22.795-115.165-17.399c-16.623,2.563-22.962,14.646-46.119,11.408
			c-9.993-1.397-16.438-8.742-24.313-10.492c-18.224-4.05-51.131,3.988-62.616-18.228c-17.332-33.526,23.592-30.621,45.963-28.711
			c52.645,4.496,108.974,9.912,161.872,11.57c22.137,0.693,44.113-0.792,37.156-25.919c-4.257-15.377-40.076-7.605-54.504-9.014
			c-9.999-0.977-18.721-5.445-28.53-6.12c-26.728-1.84-72.983,10.117-86.839-17.103c-11.219-22.039,9.571-36.182,29.213-40.69
			l86.702,17.077c21.333,1.71,57.484,4.862,65.078-20.798c3.42-11.559-1.441-51.694,0.912-54.048
			c1.305-1.306,31.529-0.858,36.878,0.684c19.771,5.699,6.173,68.566,0.72,86.174c-5.242,16.927-27.651,42.516-8.821,60.799
			c19.958,19.379,76.287,7.978,75.648,46.136C2998.869,198.84,2993.571,219.867,2992.622,220.816z"/>
		<path style="fill:#E0D0CE;" d="M1040.306,965.883c-16.457,16.386-42.064-8.799-43.829-25.595
			c-0.675-6.428,4.613-14.359,4.755-22.154c0.935-51.424,2.885-99.546,5.864-150.31c2.763-47.08-7.455-58.404-54.828-61.256
			c-30.708-1.849-48.57,9.446-75.165,11.931c-62.404,5.831-133.106-4.668-196.517-0.031c-24.67-3.551-33.477-53.085,17.456-52.673
			c14.021,0.114,25.904,6.26,40.263,6.684c16.32,0.482,27.54-6.052,40.591-6.608c33.115-1.413,76.086,10.021,115.526,6.344
			c43.62-4.066,57.546-15.594,108.319-4.695c58.882,12.64,40.805,42.594,44.356,88.613c4.017,52.053,13.382,127.829,5.802,179.038
			C1052.11,940.494,1043.114,963.087,1040.306,965.883z"/>
		<path style="fill:#E0D0CE;" d="M959.465,939.374c23.127,23.522-19.113,47.615-42.384,50.62
			c-46.998,6.07-88.802-11.542-132.482-11.591c-24.449-0.028-46.288,10.062-69.122,12.028
			c-29.172,2.512-106.744,4.779-123.615-21.045c-18.107-27.717,13.286-98.502-49.183-94.706l-104.629,22.706
			c-27.79-7.746-44.91-23.793-17.164-45.99c24.015-19.211,47.564-9.03,75.243-11.373c27.018-2.288,57.532-8.445,85.034-10.755
			c56.249,12.375,37.612,50.557,45.774,87.608c10.186,46.245,73.452,22.713,105.543,21.171c27.724-1.332,65.679-4.329,91.467-3.99
			c16.834,0.221,43.263,10.196,58.764,10.302C903.211,944.5,940.948,920.541,959.465,939.374z"/>
		<path style="fill:#E0D0CE;" d="M1175.318,1232.19c-11.221-14.151-1.086-35.051-0.868-47.942
			c0.593-35.089-7.15-80.391-5.863-109.561c0.956-21.672,15.358-53.882,17.203-76.265c1.787-21.683-18.756-28.523-37.032-25.769
			c-12.611,1.9-7.995,55.24-8.969,66.975c-2.162,26.054-7.565,46.269-6.112,75.218c0.833,16.609,17.177,46.084-9.363,53.915
			c-46.092,13.599-44.087-59.391-42.585-88.964c0.503-9.897,5.773-18.76,6.108-28.596c0.73-21.418-5.135-108.453,6.659-117.747
			c1.333-1.05,21.948-6.422,25.485-6.724c13.603-1.163,22.47,5.589,34.14,6.128c25.681,1.185,45.013-19.715,69.047,11.305
			c26.422,34.104,5.962,54.128,2.901,89.366c-3.949,45.448,10.766,154.939-8.796,187.897
			C1208.596,1236.042,1186.725,1246.577,1175.318,1232.19z"/>
		<path style="fill:#E0D0CE;" d="M2546.968,117.849c-16.615-16.782-61.119-0.268-82.618-0.789
			c-34.776-0.842-63.77-16.262-103.96-12.141c-28,2.871-91.417,42.735-83.805-19.984c2.898-23.875,53.651-35.747,73.502-36.06
			c32.834-0.517,66.162,13.091,96.901,15.827c41.129,3.661,119.056-26.724,142.802,18.918
			c22.101,42.481,14.979,114.665-40.02,124.319c-25.244,4.431-95.207,8.303-99.887-24.74c-7.064-49.873,60.844-14.417,82.921-21.066
			C2549.518,157.1,2560.881,131.901,2546.968,117.849z"/>
		<path style="fill:#E0D0CE;" d="M2171.876,1500c5.385-0.859,10.582-1.377,15.579-1.13c2.543,0.126,4.749,0.539,6.735,1.13h48.081
			c-0.354-5.469-0.731-11.615-0.09-15.072c1.676-9.028,8.814-12.721,10.596-18.46c2.224-7.166-3.92-50.551-6.192-61.11
			c-5.648-26.255-29.965-54.053-4.26-76.504c20.158-17.607,35.492-3.607,54.558-2.83c51.144,2.085,79.867-4.096,127.554-11.362
			c17.991-2.741,52.904,7.257,59.518-15.71c2.641-9.172,1.25-15.289-4.716-22.652c-32.572-40.197-107.311,19.92-146.224,13.698
			c-15.609-2.496-27.527-16.792-41.736-16.806c-14.018-0.014-18.287,10.332-28.842,12.175c-20.638,3.603-48.121-7.116-66.301,8.767
			c-33.76,29.496,20.141,111.235,1.235,151.666c-11.796,25.225-49.326,7.276-72.57,14.051c-18.081,5.27-16.759,29.191-11.373,40.15
			H2171.876z"/>
		<path style="fill:#E0D0CE;" d="M2714.117,1431.358c4.11,4.43,8.364,15.535,4.662,21.683
			c-20.702,34.381-91.656,17.629-100.257-21.243c-7.326-33.109,0.372-94.528-0.915-132.151
			c-1.518-44.37-10.671-92.123-6.103-138.851c6.753-69.068,38.566-52.018,89.813-54.627c16.656-0.848,45.965-17.199,53.805,9.393
			c15.538,52.701-58.875,36.731-81.913,43.435c-27.852,8.105-9.893,42.833-9.168,59.882c1.228,28.854-2.318,57.235-0.175,92.218
			c2.019,32.945-17.995,72.384,8.204,95.963C2682.033,1416.027,2706.404,1423.046,2714.117,1431.358z"/>
		<path style="fill:#E0D0CE;" d="M1126.93,1205.553c21.16,20.999-23.502,69.254,38.702,68.721
			c12.813-0.11,22.882-5.754,34.439-6.447c24.905-1.493,105.984,1.833,112.059,32.815c6.432,32.803-45.215,18.399-60,19.064
			c-41.472,1.866-25.816,28.249-32.818,54.186c-1.167,4.324-6.722,8.654-8.9,14.224c-5.451,13.939-11.624,44.699-36.439,27.681
			c-29.953-20.541,18.701-71.161-2.689-95.642c-10.215-11.691-19.637-11.96-31.448-2.807
			c-33.724,26.135,16.059,80.085-11.521,98.416c-5.131,3.41-24.66,4.78-28.513,2.032c-1.725-1.231-14.108-34.126-15.316-39.576
			c-4.802-21.657-0.818-40.383-2.424-61.214c-2.54-32.967-17.073-72.641,6.324-103.255
			C1097.268,1202.129,1114.712,1193.428,1126.93,1205.553z"/>
		<path style="fill:#E0D0CE;" d="M373.019,497.339c18.333,18.346,80.12-4.265,105.51-5.023
			c36.165-1.081,89.524,9.586,126.945,12.137c30.219,2.059,61.281-9.704,86.9-6.038c20.47,2.929,19.841,36.522,5.062,45.8
			c-39.797,24.982-74.958,3.516-114.714,0.414c-48.717-3.8-96.946,4.443-144.315,6.117c-21.197,0.75-81.234,3.666-97.369-1.103
			c-16.522-4.884-25.538-32.226-27.071-48.081c-1.818-18.791-6.962-84.483,20.37-84.386
			C368.522,417.296,362.429,486.741,373.019,497.339z"/>
		<path style="fill:#E0D0CE;" d="M3000,248.986c-13.154-0.761-52.55,1.445-62.346,0.928c-11.357-0.6-22.434-8.743-33.492-5.337
			c-5.046,1.554-24.565,21.169-26.05,26.301c-3.93,13.585,3.934,45.729-10.334,54.421c-17.893,10.9-67.81,3.986-91.754,5.259
			c-28.853,1.534-54.335,7.893-86.591,6.119c-17.821-0.98-62.371-19.724-66.37,8.417c-3.935,27.693,11.003,40.934,37.463,43.697
			l218.491-7.081c47.552-10.562,30.732-65.681,50.259-82.701c20.159-17.57,56.501,0.325,70.725-6.347V248.986z"/>
		<path style="fill:#E0D0CE;" d="M1040.311,1243.635c-18.651,18.466-44.923-13.823-48.354-33.435
			c-3.236-18.5,12.551-62.161,14.501-84.353c1.969-22.409,5.823-57.438-16.833-69.198c-12.875-6.683-30.688,6.957-34.037,18.464
			c-6.793,23.348,32.09,50.145,4.953,74.156c-20.242,17.91-42.125,1.989-49.271-19.797c-4.651-14.179-4.769-62.457-1.472-77.354
			c10.243-46.279,80.482-39.372,117.288-44.524c10.806,1.196,20.184,13.003,23.384,22.867c5.663,17.452,4.662,86.377,2.701,107.495
			c-1.49,16.036-10.08,32.117-11.438,46.635C1039.974,1203.403,1054.37,1229.715,1040.311,1243.635z"/>
		<path style="fill:#E0D0CE;" d="M2749.079,977.526c-7.005,6.937-25.309,6.999-32.368,0c-20.566-20.391,18.117-88.115-50.522-96.849
			c-25.571-3.254-77.208-6.614-86.666,22.564c-6.978,21.528,21.969,79.443-23.034,81.312c-44.247,1.838-26.659-37.225-25.465-60.634
			c1.784-34.956-10.63-62.674,26.579-83.284c8.107-4.49,12.874-5.806,22.106-6.773c46.85-4.904,167.306,0.79,176.111,61.125
			C2757.999,909.922,2758.243,968.451,2749.079,977.526z"/>
		<path style="fill:#E0D0CE;" d="M867.117,1101.414c9.325,9.276,9.21,78.288,6.81,94.109c-4.355,28.708-32.061,49.939-60.467,49.702
			c-10.592-0.088-21.249-6.059-34.362-6.427c-54.222-1.522-110.27,10.784-162.093,6.246c-17.042-1.492-36.651-10.201-31.008-31.032
			c6.642-24.517,56.767-13.301,77.54-15.282c19.84-1.892,43.562-10.454,63.153-11.879c27.625-2.009,63.406,14.26,85.996,0.505
			c17.437-10.618,3.396-57.873,12.282-75.618C832.459,1096.784,853.924,1088.288,867.117,1101.414z"/>
		<path style="fill:#E0D0CE;" d="M142.147,320.315c25.031-25.302,58.373,25.805,85.624,7.735
			c15.52-10.29,9.619-41.813,11.614-57.768c6.683-53.456,63.548-50.069,50.535,10.188c-3.163,14.646-21.75,33.955-13.548,50.273
			c4.81,9.569,18.156,14.269,28.476,11.035c13.053-4.09,12.206-31.042,23.297-40.37c30.599-25.732,69.323,41.835,23.542,75.642
			c-22.557,16.657-58.784,12.959-86.798,11.698c-9.73-0.438-18.537-5.339-28.532-6.117c-16.784-1.307-35.651,2.397-51.952-0.002
			C161.872,379.312,122.051,340.629,142.147,320.315z"/>
		<path style="fill:#E0D0CE;" d="M107.924,360.925c-9.459-26.867-13.913-33.454-44.731-36.127
			c-7.257-0.629-50.55,2.659-63.194,4.983v42.105c8.847,0.36,31.902-2.268,39.321-0.851c4.476,0.855,2.734,8.136,4.922,9.982
			c10.122,8.542,27.878,2.199,27.812,33.545c-0.012,6.031-12.513,61.853-14.826,66.579C47.327,501.38,19.663,500.089,0,498.383
			v41.836c34.076,5.342,86.364,21.81,97.734-1.126c5.685-11.469,1.654-28.157,4.183-42.092
			c3.078-16.957,13.812-34.464,15.815-47.796C121.717,422.673,116.853,386.286,107.924,360.925z"/>
		<path style="fill:#E0D0CE;" d="M1813.408,835.38c15.854-2.83,40.48-0.711,55.189,5.756c7.105,3.124,30.199,25.011,32.107,31.463
			c3.617,12.229,2.498,76.272-1.648,89.077c-15.981,49.348-129.703,45.535-140.664-4.303c-3.295-14.979-3.197-63.1,1.469-77.347
			C1765.87,861.677,1794.495,838.757,1813.408,835.38z M1854.244,887.377c-19.456-19.77-56.883,0.126-56.963,30.569
			c-0.133,50.535,73.619,36.393,68.595-4.897C1865.588,910.674,1855.675,888.831,1854.244,887.377z"/>
		<path style="fill:#E0D0CE;" d="M827.897,767.538c3.983-14.872,27.208-19.724,40.599-5.968
			c27.544,28.293-5.072,67.714,14.365,89.747c18.97,21.503,47.328,4.459,49.052-20.431c1.521-21.974-30.976-61.973-11.768-80.81
			c13.022-12.771,29.733-6.698,40.734,5.688c22.354,25.168,25.89,115.827-3.71,135.548c-23.313,15.532-100.02,20.939-118.049-1.952
			c-2.222-2.822-11.222-22.166-11.222-23.467C827.897,842.921,823.338,784.565,827.897,767.538z"/>
		<path style="fill:#E0D0CE;" d="M940.47,239.863c33.462-0.04,24.774,61.096,25.799,82.353c0.797,16.523,9.835,23.404,3.344,43.513
			c-12.077,37.413-52.328,5.133-75.331,5.129c-17.175-0.003-48.283,15.162-69.685,17.314c-31.651,3.182-96.257-1.076-82.429-47.881
			c9.69-32.799,52.349-3.412,71.296-3.413c14.476-0.001,26.741-9.791,40.695-11.65c15.706-2.092,50.613,3.865,60.649-2.857
			C931.033,311.503,903.595,239.907,940.47,239.863z"/>
		<path style="fill:#E0D0CE;" d="M1306.114,1484.039c7.345-24.846-31.724-82.683,15.351-82.69
			c42.847-0.006,18.269,54.934,19.913,71.891c0.126,1.301,7.227,17.878,11.706,26.76h35.624c0.609-15.711-3.173-61.42-1.09-72.372
			c0.907-4.766,9.172-2.705,10.462-4.358c5.275-6.755,0.969-34.534-3.128-43.786c-18.068-40.789-139.169-30.483-150.483,8.045
			c-6.606,22.497,8.108,83.601,21.814,102.314C1276.432,1503.702,1300.969,1501.442,1306.114,1484.039z"/>
		<path style="fill:#E0D0CE;" d="M439.765,1361.864c31.375-2.706,77.125,6.323,114.193,4.751
			c30.149-1.278,79.793-26.114,71.948,25.797c-4.703,31.121-45.748,24.023-66.629,25.811c-41.993,3.594-48.624-1.931-86.781-5.17
			c-41.519-3.524-80.203,19.923-108.969,17.036c-41.326-4.148-45.42-56.901-0.169-63.575
			C384.974,1363.325,415.416,1363.964,439.765,1361.864z"/>
		<path style="fill:#E0D0CE;" d="M318.772,210.359c-10.733-11.048-42.962-4.474-58.437-7.971
			c-7.88-1.781-14.159-8.845-24.244-10.415c-21.364-3.326-36.079,3.158-57.795-11.503c-23.514-15.876-36.331-80.065-31.606-107.265
			c3.613-20.799,30.148-34.651,43.567-14.645c12.353,18.416-12.969,72.087,21.47,88.404c48.789,11.827,106.29,0.955,151.775,21.454
			c22.113,22.771,19.464,62.269-5.834,81.542C327.409,273.014,328.264,220.129,318.772,210.359z"/>
		<path style="fill:#E0D0CE;" d="M419.095,0c0.612,9.772,5.312,22.188,5.106,32.844c-0.177,9.173-1.565,23.514-7.61,30.35
			c-1.104,1.248-17.99,11.31-19.881,11.82c-29.889,8.069-40.089-12.649-62.517-16.034c-27.779-4.192-57.376,10.909-86.486,5.574
			c-25.241,6.109-27.307,32.983-6.011,46.587c18.821,12.022,62.24,3.064,86.999,5.378c39.09,3.653,66.878,25.685,108.794-0.614
			c27.365-17.169,18.676-50.692,20.782-77.53c1.003-12.779,6.094-27.327,6.096-38.375H419.095z"/>
		<path style="fill:#E0D0CE;" d="M1438.673,1347.201c6.3,28.074-7.657,29.344-10.43,45.164c-2.73,15.576-2.023,64.31-0.207,81.24
			c0.443,4.126,4.338,17.026,7.74,26.394h43.769l-0.453-193.277c-2.065-12.171-20.823-28.862-31.724-31.846
			c-10.725-2.936-74.374-3.2-84.569-0.17c-16.826,5.001-28.059,30.124-14.148,44.158
			C1368.547,1338.937,1427.51,1297.455,1438.673,1347.201z"/>
		<path style="fill:#E0D0CE;" d="M2211.534,320.26c23.769-5.361,37.407,4.122,56.49,4.845c59.82,2.269,140.567-8.195,196.274-0.001
			c43.146,6.346,41.778,58.842,6.009,58.149c-8.627-0.167-16.26-5.435-23.542-5.879c-25.009-1.526-51.379-5.128-74.499-6.317
			c-55.57-2.859-112.021,2.387-167.683,0.275C2174.854,359.661,2180.414,327.279,2211.534,320.26z"/>
		<path style="fill:#E0D0CE;" d="M62.935,920.44c-5.309-0.181-41.849,4.892-62.935,8.671v51.114
			c26.338-3.978,74.712-22.917,72.084,24.607c-1.826,33.014-44.954,25.546-72.084,26.319v44.528
			c21.631,2.27,53.307,2.268,62.691,1.069C143.835,1066.379,143.587,923.187,62.935,920.44z"/>
		<path style="fill:#E0D0CE;" d="M2417.029,1408.796c-1.182,0.801-1.578,5.154-3.817,7.534c-2.347,2.494-8.735,1.343-9.538,5.644
			c-2.221,11.904,2.992,68.869,0.194,71.676c-1.429,1.433-39.016,1.434-40.446,0c-2.322-2.33,1.891-49.585,0.044-60.793
			c-6.138-37.248-66.53-11.281-80.002-21.104c-2.167-1.58-13.638-24.261-11.97-30.141c9.308-32.794,69.669-13.339,95.021-15.117
			c32.018-2.246,94.163-24.381,120.37-16.816c15.054,4.346,11.843,29.176,0.877,40.02
			C2467.792,1409.448,2439.372,1393.662,2417.029,1408.796z"/>
		<path style="fill:#E0D0CE;" d="M2408.474,939.309c7.537,7.418,7.044,28.037-2.509,33.999
			c-19.999,12.481-67.024-3.321-80.28,16.744c-11.943,18.077,13.894,70.099-23.837,74.372c-20.028,2.268-26.343-19.905-25.43-36.479
			c0.466-8.462,5.718-16.237,5.804-23.343c0.498-41.12-58.917-16.281-77.872-31.33c-22.01-17.475,1.318-45.428,23.715-46.761
			c9.396-0.559,18.432,5.699,28.413,6.107c36.547,1.493,79.612-8.138,109.881-6.274
			C2374.011,926.815,2404.401,935.3,2408.474,939.309z"/>
		<path style="fill:#E0D0CE;" d="M3000,672.076h-241.128c-14.749,0-51.736,30.91-33.878,46.581
			c5.419,4.756,20.16,11.413,28.033,11.82c21.401,1.106,62.709-10.211,86.498-12.282c37.414-3.257,84.615-7.584,121.562-5.787
			c13.398,0.652,22.769,6.996,38.914,5.882V672.076z"/>
		<path style="fill:#E0D0CE;" d="M80.019,1105.684c-8.275,2.538-13.746,10.318-22.794,11.868c-9.087,1.556-41.192-0.68-57.224-0.76
			v41.636c16.72,9.536,50.868,1.398,67.351-1.799c22.827-4.427,56.603-22.332,75.798-9.43c29.712,19.971,3.079,79.636,24.16,85.742
			c27.848,8.065,41.691-32.291,43.122-54.372C216.191,1089.632,148.445,1084.703,80.019,1105.684z"/>
		<path style="fill:#E0D0CE;" d="M497.423,1101.589c9.462-1.23,14.863-3.586,24.611,1.448
			c29.525,15.246,20.187,39.554,22.821,63.891c1.086,10.034,5.447,18.865,6.178,28.639c3.913,52.295-55.49,58.725-58.066,17.164
			c-0.923-14.892,11.123-30.229,4.934-50.857c-1.826-6.083-11.069-15.851-18.273-14.706c-31.338,4.982-18.344,38.027-21.372,59.888
			c-3.878,27.999-34.81,40.952-51.067,16.851c-13.698-20.307,2.29-33.402,8.191-54.035c6.841-23.92,2.987-55.895,35.469-62.809
			C463.447,1104.381,482.593,1103.517,497.423,1101.589z"/>
		<path style="fill:#E0D0CE;" d="M628.208,0h-39.332c-7.047,11.305-16.934,54.474-17.531,64.923
			c-24.864,13.742-36.42,7.657-38.096-20.411c-0.503-8.417,3.603-30.983,5.45-44.512h-37.134
			c-3.286,11.708-7.737,29.557-8.201,33.049c-2.01,15.097-3.27,66.673,5.377,75.042c29.113,28.176,98.477,17.248,116.889-21.928
			c5.67-12.064,18.634-71.008,15.474-81.741C630.602,2.72,629.585,1.256,628.208,0z"/>
		<path style="fill:#E0D0CE;" d="M2537.789,1211.386c8.306-8.319,25.386-6.509,33.612,1.531
			c11.119,10.868,4.371,72.178,5.464,92.849c0.526,9.946,5.789,18.832,6.106,28.594c0.899,27.627,3.938,79.585-0.141,104.334
			c-4.566,27.705-46.248,31.37-51.774-5.98c-4.31-29.128,8.649-56.52,5.708-86.799c-1.498-15.425-9.595-26.982-11.402-40.601
			C2522.531,1283.976,2522.591,1226.607,2537.789,1211.386z"/>
		<path style="fill:#E0D0CE;" d="M2408.433,146.789c10.991,10.941,5.559,44.152,6.79,59.72c2.228,28.171,18.306,67.841-22.6,81.144
			c-13.018,4.234-119.75,5.196-127.56-0.074c-30.633-20.668,10.804-48.875,37.838-49.836c14.271-0.507,26.024,7.112,40.282,6.642
			c56.13-1.849,11.377-50.64,21.204-83.426C2369.448,144.074,2394.432,132.852,2408.433,146.789z"/>
		<path style="fill:#E0D0CE;" d="M2676.374,763.458c19.476,19.671,84.469-18.669,94.271,18.105
			c13.717,51.461-46.726,32.844-75.628,29.724c-29.685-3.205-78.04,4.05-77.973-37.944c0.024-14.98,11.236-28.222,11.956-40.917
			c0.913-16.077-15.986-41.898-0.128-57.566c17.057-16.853,55.128-5.373,58.081,17.555
			C2690.105,716.908,2656.411,743.297,2676.374,763.458z"/>
		<path style="fill:#E0D0CE;" d="M1437.593,302.466c42.024-13.07,40.367,34.553,42.952,59.714
			c0.782,7.613,5.751,14.764,5.802,23.484c0.131,22.842-15.122,57.172-35.264,69.181c-26.909,16.042-127.713,15.94-114.84-27.974
			c1.425-4.86,26.313-21.251,31.419-21.234c13.243,0.045,23.278,24.816,56.922,5.293c36.693-21.293-0.496-54.364-2.271-77.593
			C1421.61,324.172,1428.602,305.263,1437.593,302.466z"/>
		<path style="fill:#E0D0CE;" d="M1276.213,927.576c51.531,3.31,116.514-7.842,166.289-0.744
			c45.677,6.514,31.012,69.462,6.064,69.396c-9.623-0.025-30.826-15.186-46.585-17.214c-36.096-4.644-93.016,8.884-123.532-9.262
			C1258.453,957.862,1253.031,939.435,1276.213,927.576z"/>
		<path style="fill:#E0D0CE;" d="M1987.024,283.297c-11.387,11.535-58.647,5.86-76.909,6.765
			c-29.979,1.485-37.867,2.204-68.938,0.001c-22.255-1.578-82.147,7.058-78.433-31.556c3.36-34.934,56.746-15.176,78-14.299
			c31.536,1.302,66.824,0.697,98.551-0.075c8.503-0.207,16.268-5.621,23.102-5.665
			C1983.278,238.335,2002.688,267.43,1987.024,283.297z"/>
		<path style="fill:#E0D0CE;" d="M1267.772,109.729c-8.807-8.595-8.037-30.858-1.471-41.458
			c14.413-23.268,58.834,4.966,78.541,7.602c45.093,6.033,53.78-8.532,87.382-16.05c48.907-10.942,52.988,52.808-12.897,62.349
			c-30.344,4.394-78.954,3.417-109.571,0.433C1301.417,121.792,1272.333,114.18,1267.772,109.729z"/>
		<path style="fill:#E0D0CE;" d="M2205.367,42.116c19.272-5.99,38.42,7.454,41.883,26.554c3.858,21.282-29.953,41.024-7.728,70.968
			c23.89,32.187,83.951,2.072,83.951,43.554c0,50.991-84.113,11.239-106.363-3.768c-12.729-8.586-24.364-21.024-26.685-36.897
			C2187.652,123.569,2185.428,48.313,2205.367,42.116z"/>
		<path style="fill:#E0D0CE;" d="M727.805,586.222c32.231-9.312,76.363,8.3,108.588,10.806c15.716,1.222,36.31,0.788,52.287,0.002
			c13.635-0.671,23.744-7.949,39.963-5.901c37.088,4.683,37.48,42.112-5.284,46.445c-39.588,4.011-78.147-4.078-115.5-6.165
			c-21.691-1.212-73.229,5.744-87.096-5.274C706.609,614.891,710.702,591.164,727.805,586.222z"/>
		<path style="fill:#E0D0CE;" d="M2887.104,1095.636c13.386-2.332,52.365,2.493,66.977,5.641
			c44.392,9.564,30.223,62.519-10.663,68.228c-31.835,4.446-23.541-7.143-37.46-19.968c-23.561-21.709-55.251,17.143-83.986,20.018
			c-29.624,2.964-42.069-23.264-19.681-43.188C2810.984,1118.631,2873.181,1098.061,2887.104,1095.636z"/>
		<path style="fill:#E0D0CE;" d="M2079.389,592.27c26.358,26.338-16.299,61.661-21.097,83.933
			c-3.801,17.641,15.109,33.243-3.368,48.254c-14.868,12.08-40.704-1.973-58.467-5.68c-21.46-4.478-53.928,4.098-48.872-32.292
			c3.809-27.414,43.357-16.293,59.92-21.109c30.432-8.849,14.773-57.446,35.128-74.69
			C2052.22,582.563,2071.558,584.445,2079.389,592.27z"/>
		<path style="fill:#E0D0CE;" d="M832.498,193.071c-15.855-15.729-72.11,13.469-79.086-10.436
			c-14.965-51.286,42.116-32.575,65.66-31.099c27.193,1.704,70.044-12.077,72.437,26.172c0.635,10.146-6.361,21.532-6.394,34.412
			c-0.059,22.939,19.619,58.464-16.734,69.953C822.222,296.66,849.528,209.965,832.498,193.071z"/>
		<path style="fill:#E0D0CE;" d="M1974.866,152.458c19.407-4.306,78.007-4.937,91.219,10.544
			c15.256,17.877,18.228,72.933,14.518,95.428c-3.443,20.869-34.697,28.36-43.624,14.738c-13.614-20.774,13.638-52.275-8.461-72.557
			c-18.129-16.638-35.088,8.482-54.834,8.373C1938.617,208.792,1937.535,160.742,1974.866,152.458z"/>
		<path style="fill:#E0D0CE;" d="M526.296,574.961c22.584-2.921,50.242,7.787,73.415,10.494
			c24.751,2.891,86.135-10.356,71.644,36.769c-3.815,12.406-29.734,17.789-41.487,14.103c-29.548-9.266-50.429-23.074-86.626-15.215
			c-18.866,4.096-64.21,40.401-72.537-5.176C466.315,591.912,507.439,577.4,526.296,574.961z"/>
		<path style="fill:#E0D0CE;" d="M48.054,1500h54.075c1.338-27.792-1.594-99.052-1.594-113.402c0-16.711-27.573-44.491-46.19-34.908
			c-33.37,17.177-9.091,47.002-6.051,69.908C50.124,1435.382,46.548,1484.146,48.054,1500z"/>
		<path style="fill:#E0D0CE;" d="M2841.378,424.451c23.716,23.942-14.591,41.862-36.6,44.816
			c-32.663,4.383-56.536-8.89-86.168-11.406c-19.957-1.695-107.427,11.036-72.639-32.02c14.429-17.859,41.136-3.141,60.68-2.281
			c27.49,1.209,59.422,0.904,87.022-0.072C2807.695,422.991,2827.592,410.534,2841.378,424.451z"/>
		<path style="fill:#E0D0CE;" d="M83.458,142.45c-18.924-5.363-56.508-4.144-76.752-1.226c-2.158,0.311-4.414,0.687-6.706,1.137
			v46.83c19.482,2.125,42.107,1.984,50.376,3.771c18.216,3.937,32.037,25.626,56.004,13.416
			C144.092,187.166,113.592,150.99,83.458,142.45z"/>
		<path style="fill:#E0D0CE;" d="M953.755,1199.717c8.521,8.774,9.429,40.97,18.165,54.109
			c16.792,25.254,69.269,19.054,69.634,51.908c0.255,22.935-42.385,25.126-57.851,17.282c-18.504-9.384-24.726-33.924-34.383-46.541
			c-15.692-20.503-67.204-49.521-32.318-78.276C926.675,1190.227,946.117,1191.852,953.755,1199.717z"/>
		<path style="fill:#E0D0CE;" d="M1518.422,1500h37.146c-0.175-7.275-0.47-16.212,0.064-20.472
			c3.511-28.031,3.686-48.016,5.236-75.74c0.904-16.169,18.695-66.764-14.276-66.704c-30.409,0.056-23.961,44.339-25.788,61.267
			c-2.822,26.144-8.414,46.672-6.115,75.179C1514.978,1477.108,1516.804,1490.29,1518.422,1500z"/>
		<path style="fill:#E0D0CE;" d="M1386.662,598.057c14.742,14.778,1.65,38.357,1.013,53.598
			c-1.195,28.573,10.849,65.864-18.763,79.555c-15.279,7.064-28.288,2.29-36.022-12.793c-8.714-16.996,6.227-32.534,8.491-49.522
			c3.026-22.702-10.393-75.562,20.601-78.143C1367.712,590.275,1382.965,594.351,1386.662,598.057z"/>
		<path style="fill:#E0D0CE;" d="M1087.67,674.968c2.921-11.213,36.564-12.984,43.446-3.045
			c10.377,14.984,13.052,106.957,5.7,121.73c-5.947,11.95-27.348,16.059-37.858,8.828c-1.98-1.362-11.288-16.541-11.288-17.586
			C1087.67,759.222,1082.641,694.271,1087.67,674.968z"/>
		<path style="fill:#E0D0CE;" d="M198.048,418.146c1.31,0.942,11.869,28.075,11.366,30.25c-1.002,4.328-7.487,8.673-9.397,13.878
			c-3.669,9.996-12.383,30.739-12.907,39.526c-0.729,12.235,8.303,23.966,5.923,40.047c-5.683,38.407-60.015,13.261-56.787-21.546
			c1.48-15.96,12.085-27.137,15.11-37.392c5.053-17.132-4.641-61.747,21.215-65.506
			C177.922,416.624,195.322,416.186,198.048,418.146z"/>
		<path style="fill:#E0D0CE;" d="M1691.78,753.782c24.959-7.234,42.99,27.216,42.808,48.476c-0.075,8.769-5.314,16.206-5.798,23.517
			c-1.39,20.975,4.326,69.114-26.369,72.239c-38.494,3.919-19.887-52.503-19.859-72.62
			C1682.592,804.235,1664.374,761.726,1691.78,753.782z"/>
		<path style="fill:#E0D0CE;" d="M1005.875,1500h47.003c3.196-35.157,15.349-90.847-0.634-118.397
			c-11.894-20.504-27.167-20.794-38.688,0.142C1017.083,1396.301,1007.51,1467.005,1005.875,1500z"/>
		<path style="fill:#E0D0CE;" d="M357.513,1108.059c14.728,0.387,27.15,21.041,26.07,35.276
			c-0.754,9.941-9.903,18.083-11.605,29.319c-4.634,30.583,11.318,44.913-17.357,69.397c-15.329,13.089-28.47,6.414-34.809-11.535
			c2.96-27.77,2.927-59.477,6.178-86.592C328.231,1125.231,336.062,1107.495,357.513,1108.059z"/>
		<path style="fill:#E0D0CE;" d="M106.414,1189.807c-16.323-8.304-25.193,1.841-38.007,2.611
			c-12.175,0.731-44.611-0.495-68.407,1.05v47.542c32.751,0.165,85.531-1.945,97.648-1.945
			C106.259,1239.065,132.496,1203.076,106.414,1189.807z"/>
		<path style="fill:#E0D0CE;" d="M332.625,864.185c17.405-17.497,41.239-5.736,44.817,19.248
			c3.989,27.855,6.027,101.553-31.556,107.002c-42.528,6.165-21.655-37.863-20.051-60.734
			C327.006,913,321.337,875.532,332.625,864.185z"/>
		<path style="fill:#E0D0CE;" d="M75.529,0c-1.432,9.371-3.504,22.639-6.683,29.936c-6.199,14.231-22.029,29.737-25.21,44.533
			c-8.232,38.277,40.934,50.892,59.514,18.775C110.386,80.738,120.793,24.327,120.113,0H75.529z"/>
		<path style="fill:#E0D0CE;" d="M577.986,661.735c56.764-10.541,54.953,50.143,10.201,56.482
			c-15.526,2.199-48.474,6.189-63.303,6.373c-44.855,0.557-41.316-45.401,0.147-52.313
			C544.488,669.034,560.128,665.052,577.986,661.735z"/>
		<path style="fill:#E0D0CE;" d="M1007.178,597.194c8.721-7.37,52.184-4.631,65.782-6.394c18.943-2.456,77.023-30.589,72.809,14.713
			c-2.388,25.677-49.583,24.247-66.405,26.42c-15.921,2.056-66.28,15.659-71.84-3.91
			C1006.09,622.968,1005.773,598.381,1007.178,597.194z"/>
		<path style="fill:#E0D0CE;" d="M2627.569,586.808c19.961-2.112,50.702-4.916,47.942,24.425
			c-2.799,29.755-46.726,23.996-65.479,27.383c-18.637,3.366-45.4,31.812-59.048,4.634
			C2529.468,600.401,2599.651,589.762,2627.569,586.808z"/>
		<path style="fill:#E0D0CE;" d="M1937.456,517.077c10.191-10.142,33.525-7.118,42.042,4.632
			c8.463,11.677,18.137,85.466,11.638,98.351c-12.522,24.829-30.217,17.038-43.513-2.765c-16.258-24.213-8.387-54.005-17.172-80.852
			C1930.572,532.326,1934.804,519.716,1937.456,517.077z"/>
		<path style="fill:#E0D0CE;" d="M1443.599,754.025c6.747-2.036,15.171-1.712,22.293-1.18c18.504,1.382,56.123,7.249,72.053,14.69
			c21.146,9.877,27.096,27.973,4.212,38.921c-19.579,9.368-24.992-0.777-41.574-1.501c-22.588-0.985-82.046,8.905-78.398-25.806
			C1423.034,771.067,1435.967,756.328,1443.599,754.025z"/>
		<path style="fill:#E0D0CE;" d="M699.833,370.185c-11.568,9.165-49.911,5.574-65.503,6.629
			c-20.81,1.408-54.846,16.678-49.093-25.792c4.325-31.929,76.712-30.23,101.254-26.109
			C708.915,328.679,712.573,360.092,699.833,370.185z"/>
		<path style="fill:#E0D0CE;" d="M234.502,543.58c-14.16-14.1-2.482-35.019-1.544-48.345c1.218-17.31-2.232-81.118,31.338-71.464
			c25.392,7.303,24.521,72.914,19.883,93.9C279.674,538.055,253.198,562.196,234.502,543.58z"/>
		<path style="fill:#E0D0CE;" d="M2998.128,938.528c2.496,2.13-1.048,32.17,0.329,40.203c-33.477-3.936-67.794,11.372-101.064,5.795
			c-28.126-4.716-26.82-45.955,1.125-50.795C2914.362,930.987,2988.903,930.657,2998.128,938.528z"/>
		<path style="fill:#E0D0CE;" d="M2627.615,0c-0.917,23.78,1.371,79.72,1.371,90.622c0,12.529,33.596,25.651,47.493-4.475
			c16.461-35.685,5.807-56.345-8.645-86.147H2627.615z"/>
		<path style="fill:#E0D0CE;" d="M1891.877,1500c2.405-11.504,5.216-38.285,3.511-40.634c-0.608-0.839-16.915-6.082-19.788-6.097
			c-9.18-0.048-17.862,9.688-28.953,11.327c-22.192,3.281-62.974-18.815-71.092,9.709c-1.135,3.987-1.694,17.969-1.488,25.694
			H1891.877z"/>
		<path style="fill:#E0D0CE;" d="M2910.595,1211.351c11.185,11.171,7.897,33.582-8.333,38.354
			c-16.088,4.729-87.8,4.804-93.643-14.207C2793.219,1185.387,2890.847,1191.626,2910.595,1211.351z"/>
		<path style="fill:#E0D0CE;" d="M2992.155,591.604c1.156,1.63,1.935,38.571,0.529,39.991c-1.486,1.501-24.565-1.036-31.948-0.185
			c-13.858,1.597-56.469,12.935-65.71-0.323c-2.584-3.707-1.211-23.572,2.166-28.678
			C2909.365,584.008,2982.963,578.647,2992.155,591.604z"/>
		<path style="fill:#E0D0CE;" d="M689.352,1499.417H573.898c2.234-18.634,9.649-37.449,28.525-43.688
			C627.675,1447.381,700.067,1459.501,689.352,1499.417z"/>
		<path style="fill:#E0D0CE;" d="M150.753,1350.021c59.208-12.565,76.632,76.347,11.46,61.514
			C130.249,1404.259,111.406,1358.371,150.753,1350.021z"/>
		<path style="fill:#E0D0CE;" d="M1100.822,1500h45.486c27.999-0.911,59.669-2.21,68.362-0.583
			c0.248-51.286-29.222-18.613-53.661-23.913c-16.716-3.625-31.05-29.596-50.308-19.685c-12.245,6.301-15.61,39.584-11.486,43.598
			C1099.452,1499.648,1100.021,1499.838,1100.822,1500z"/>
		<path style="fill:#E0D0CE;" d="M2113.034,927.385c51.165-16.486,69.79,66.844,16.925,63.039
			C2094.113,987.844,2089.167,935.075,2113.034,927.385z"/>
		<path style="fill:#E0D0CE;" d="M933.746,0c12.315,31.101,79.714,31.69,99.226,12.661c2.978-2.904,6.556-7.892,8.556-12.661
			H933.746z"/>
		<path style="fill:#E0D0CE;" d="M673.243,841.112c21.128-21.257,47.25,7.802,42.59,33.537
			c-11.323,62.53-62.737,28.265-54.513-7.567C662.071,863.803,671.693,842.671,673.243,841.112z"/>
		<path style="fill:#E0D0CE;" d="M2458.595,1499.568c1.441,0.207,2.837,0.339,4.208,0.432h6.856
			c47.463-3.476,44.192-79.598-10.368-63.592C2449.594,1439.253,2431.401,1495.66,2458.595,1499.568z"/>
		<path style="fill:#E0D0CE;" d="M773.974,227.493c21.302-2.397,51.839,36.143,21.531,56.3
			C743.917,318.102,727.18,232.758,773.974,227.493z"/>
		<path style="fill:#E0D0CE;" d="M1941.406,1500h41.61c-1.43-17.149-5.725-41.822-9.008-47.093
			c-8.393-13.473-34.894-7.281-40.957,11.509c-7.057,21.87,2.841,19.902,7.793,33.493
			C1941.081,1498.556,1941.259,1499.264,1941.406,1500z"/>
		<path style="fill:#E0D0CE;" d="M1300.078,1188.181c14.236,14.245,11.54,57.578-18.966,57.159
			c-47.585-0.655-33.928-66.734-0.411-64.242C1284.921,1181.411,1297.436,1185.537,1300.078,1188.181z"/>
		<path style="fill:#E0D0CE;" d="M209.005,271.647c-20.965,20.933-70.811-17.779-59.574-39.373
			c1.78-3.42,14.816-15.651,18.45-16.702C186.217,210.27,231.639,249.047,209.005,271.647z"/>
		<path style="fill:#E0D0CE;" d="M2644.247,915.577c12.041-3.567,36.849,20.876,36.85,31.197
			c0.002,21.348-32.558,48.448-52.251,29.154C2614.31,961.687,2623.978,921.581,2644.247,915.577z"/>
		<path style="fill:#E0D0CE;" d="M2823.262,580.373c41.622-12.613,50.009,41.109,13.647,59.972
			C2800.837,659.058,2787.584,591.185,2823.262,580.373z"/>
		<path style="fill:#E0D0CE;" d="M3000,825.672c-18.335-0.88-42.521,21.302-35.329,45.114c3.497,11.578,21.394,20.616,35.329,23.066
			V825.672z"/>
		<path style="fill:#E0D0CE;" d="M194.689,1500c7.727-14.693,4.944-39.917-2.824-45.833c-6.993-5.326-31.078-6.99-38.248,0.145
			c-5.069,5.044-7.861,30.624-8,45.688H194.689z"/>
		<path style="fill:#E0D0CE;" d="M2868.088,1500c-16.021-36.382-74.645-43.607-82.382,0H2868.088z"/>
		<path style="fill:#E0D0CE;" d="M543.852,922.043c14.215,14.235,11.59,49.972-14.399,55.763
			c-40.96,9.127-40.577-60.555-10.289-63.059C524.884,914.273,540.164,918.349,543.852,922.043z"/>
		<path style="fill:#E0D0CE;" d="M756.567,1089.141c28.427-8.376,48.673,58.072,10.661,63.335
			C723.419,1158.542,723.539,1098.872,756.567,1089.141z"/>
		<path style="fill:#E0D0CE;" d="M1351.447,326.002c51.802-11.217,44.554,56.788,4.66,56.692
			C1324.079,382.617,1316.869,333.49,1351.447,326.002z"/>
		<path style="fill:#E0D0CE;" d="M2124.749,1361.281c32.436-9.646,53.034,46.863,21.304,56.194
			C2097.652,1431.708,2091.854,1371.063,2124.749,1361.281z"/>
		<path style="fill:#E0D0CE;" d="M2194.029,215.875c26.418-7.827,46.363,15.081,33.808,39.726
			c-2.8,5.495-22.053,23.401-28.911,23.392C2173.483,278.96,2169.582,223.119,2194.029,215.875z"/>
		<path style="fill:#E0D0CE;" d="M21.674,233.301c-2.888-0.84-12.391-1.436-21.674-1.666v52.51c2.326,0.473,4.267,0.783,5.345,0.798
			C35.176,285.382,50.436,241.669,21.674,233.301z"/>
		<path style="fill:#E0D0CE;" d="M116.663,250.916c11.355,11.395,9.254,38.986-8.355,44.228
			c-44.188,13.154-59.953-55.724-10.941-51.101C101.868,244.468,113.874,248.117,116.663,250.916z"/>
		<path style="fill:#E0D0CE;" d="M3000,340.282c-0.385-0.49-0.793-0.9-1.231-1.193c-8.713-5.821-38.279-2.75-45.314,4.385
			c-7.451,7.556-7.341,33.884-0.661,38.802c1.732,1.275,35.172,2.066,47.206,1.229V340.282z"/>
		<path style="fill:#E0D0CE;" d="M1510.29,965.946c-14.485-14.665-5.154-44.035,18.874-45.468
			C1589.537,916.877,1545.255,1001.346,1510.29,965.946z"/>
		<path style="fill:#E0D0CE;" d="M1778.445,759.542c37.271-10.586,50.846,41.753,21.27,50.524
			C1758.68,822.236,1751.37,767.232,1778.445,759.542z"/>
		<path style="fill:#E0D0CE;" d="M1553.891,407.421c38.323,35.221-27.205,72.293-38.096,35.211
			C1506.75,411.838,1533.632,388.802,1553.891,407.421z"/>
		<path style="fill:#E0D0CE;" d="M3000,1191.689c-7.746,0.904-17.68,3.806-22.047,6.595c-32.113,20.51-25.94,58.095,16.69,45.623
			c1.977-0.578,3.753-1.638,5.357-3.036V1191.689z"/>
		<path style="fill:#E0D0CE;" d="M1856.646,1193.94c17.853-18.075,46.832-5.258,45.372,24.937
			C1899.645,1267.978,1829.132,1221.798,1856.646,1193.94z"/>
		<path style="fill:#E0D0CE;" d="M0,1279.532v51.359c8.108-1.987,16.226-5.061,19.616-8.026
			C43.089,1302.337,19.755,1282.18,0,1279.532z"/>
		<path style="fill:#E0D0CE;" d="M0,578.974v47.109c11.242-2.268,22.289-7.104,24.748-15.588
			C29.735,593.289,15.093,581.744,0,578.974z"/>
		<path style="fill:#E0D0CE;" d="M2451.236,283.28c-25.158-25.472,32.396-69.368,44.113-29.772
			C2504.845,285.602,2469.665,301.939,2451.236,283.28z"/>
		<path style="fill:#E0D0CE;" d="M2451.103,927.703c2.939-2.24,23.173-6.996,27.689-4.296c36.018,21.538,10.271,63.533-23.09,46.697
			C2441.12,962.744,2441.75,934.831,2451.103,927.703z"/>
		<path style="fill:#E0D0CE;" d="M792.726,544.245c-0.603,0.857-17.015,5.945-19.974,6.244
			c-44.606,4.503-40.336-60.521,11.217-45.53C795.453,508.298,796.483,538.901,792.726,544.245z"/>
		<path style="fill:#E0D0CE;" d="M404.308,586.031c26.483-8.097,53.736,11.254,34.043,34.067
			c-14.521,16.822-16.614,20.631-34.817,5.751C388.201,613.315,385.422,591.805,404.308,586.031z"/>
		<path style="fill:#E0D0CE;" d="M1715.738,939.421c24.964,24.766-13.129,63.242-38.036,38.084
			C1654.125,953.693,1696.472,920.307,1715.738,939.421z"/>
		<path style="fill:#E0D0CE;" d="M161.704,1019.773c39.495-11.571,51.974,39.332,14.189,49.038
			C150.274,1075.391,143.222,1025.188,161.704,1019.773z"/>
		<path style="fill:#E0D0CE;" d="M1559.823,1275c27.538,27.546-26.909,58.348-42.311,27.746
			C1504.599,1277.089,1542.158,1257.33,1559.823,1275z"/>
		<path style="fill:#E0D0CE;" d="M2328.928,1500c-1.681-10.658-6.026-25.6-8.829-29.458c-12.125-16.689-37.793-10.978-37.418,8.338
			c0.033,1.718,1.768,12.522,3.366,21.12H2328.928z"/>
		<path style="fill:#E0D0CE;" d="M2160.517,624.988c-1.057,1.468-21.899,13.727-28.017,9.811
			c-34.317-21.962-11.086-61.353,17.481-46.735C2160.372,593.381,2166.383,616.841,2160.517,624.988z"/>
		<path style="fill:#E0D0CE;" d="M2799.883,0c-2.069,12.985,12.657,41.108,28.332,39.912c1.101-0.084,18.603-9.969,19.255-10.863
			c3.154-4.327,2.319-21.91-2.441-29.049H2799.883z"/>
		<path style="fill:#E0D0CE;" d="M19.009,427.049C16.988,420.04,8.604,414.965,0,412.216v45.807
			C12.08,453.862,23.851,443.845,19.009,427.049z"/>
		<path style="fill:#E0D0CE;" d="M1600.276,0c1.751,13.859,11.372,35.144,32.087,29.131c9.802-2.845,15.806-18.198,16.926-29.131
			H1600.276z"/>
		<path style="fill:#E0D0CE;" d="M1085.53,0c-0.354,13.977,4.714,35.695,27.305,29.105c9.8-2.858,15.793-18.185,16.91-29.105
			H1085.53z"/>
		<path style="fill:#E0D0CE;" d="M3000,1289.41c-10.927,0.95-26.751,6.992-29.658,17.002c-6.674,22.983,15.746,27.866,29.658,27.343
			V1289.41z"/>
		<path style="fill:#E0D0CE;" d="M799.542,1500c-0.582-9.225-4.549-27.364-6.826-28.976c-3.583-2.536-29.217-1.448-34.416,2.034
			c-5.097,3.413-6.615,18.713-6.322,26.942H799.542z"/>
		<path style="fill:#E0D0CE;" d="M1364.108,0c-0.311,8.572,0.599,25.794,3.32,30.084c7.001,11.04,29.885,2.049,35.082-5.766
			c2.525-3.797,3.487-17.042,3.305-24.319H1364.108z"/>
		<path style="fill:#E0D0CE;" d="M2.723,738.286c-0.613-0.411-1.553-0.779-2.723-1.108v33.898c4.452-0.076,7.795-0.284,8.19-0.647
			C9.958,768.805,9.556,742.877,2.723,738.286z"/>
		<path style="fill:#E0D0CE;" d="M3000,76.126c-9.655,1.314-22.912,4.555-24.144,6.321c-3.277,4.699-1.357,27.414,4.945,31.637
			c2.95,1.976,11.952,2.943,19.198,3.167V76.126z"/>
		<path style="fill:#E0D0CE;" d="M3000,422.62c-5.907,0.818-12.801,2.95-16.091,6.332c-19.171,19.709,1.601,38.582,16.091,41.982
			V422.62z"/>
		<path style="fill:#E0D0CE;" d="M1267.605,0c2.451,8.516,7.926,19.307,16.085,21.409c19.548,5.035,29.126-10.026,30.877-21.409
			H1267.605z"/>
		<path style="fill:#E0D0CE;" d="M833.026,0c-0.001,7.618,0.394,16.697,1.164,17.76c4.583,6.322,34.786,6.322,39.368,0
			c0.771-1.063,1.166-10.142,1.165-17.76H833.026z"/>
		<path style="fill:#E0D0CE;" d="M843.185,1500h11.161c8.235-0.328,17.325-1.316,20.057-3.151c6.685-4.492,7.416-30.17,5.446-32.143
			c-4.509-4.516-32.214,0.501-37.594,11.494c-2.633,5.379-4.747,21.394-2.823,23.206C839.725,1499.679,841.12,1499.88,843.185,1500z
			"/>
		<path style="fill:#E0D0CE;" d="M2715.087,0c0.151,6.054,0.49,11.568,0.934,12.037c5.073,5.369,28.696,5.356,33.748,0
			c0.443-0.47,0.782-5.984,0.933-12.037H2715.087z"/>
		<path style="fill:#E0D0CE;" d="M2051.201,0c-0.236,7.933,0.216,22.824,0.957,23.608c5.073,5.369,28.696,5.355,33.748,0
			c0.741-0.786,1.193-15.675,0.957-23.608H2051.201z"/>
		<path style="fill:#E0D0CE;" d="M2449.5,0c-0.202,6.196,0.089,16.298,1.097,17.721c1.019,1.44,20.491,7.282,24.939,6.177
			c7.742-1.923,10.32-16.166,10.123-23.898H2449.5z"/>
	</g>
</g>
</svg>
